<svg id="b8550643-d410-45b4-bb4f-cbfea06b272a" data-name="Lager 1" xmlns="http://www.w3.org/2000/svg" viewBox="0 0 271.38 61.55"><defs><style>.e3b3e149-d1ca-4e52-b8fd-976f9ed6cd0f{fill:#fff}</style></defs><path class="e3b3e149-d1ca-4e52-b8fd-976f9ed6cd0f" d="M45.05 15.66h-6.46c-2 0-2.28.25-4.62 2.62l-20.66 20.8V6.34a1.53 1.53 0 0 0-1.7-1.7h-9.9A1.53 1.53 0 0 0 0 6.34v4.4a1.54 1.54 0 0 0 1.71 1.72h3.62v40.37H1.72A1.53 1.53 0 0 0 0 54.53v4.4a1.55 1.55 0 0 0 1.7 1.73h15.17A1.54 1.54 0 0 0 18.58 59v-4.4a1.55 1.55 0 0 0-1.71-1.72h-3.56v-3.32l7.76-7.87 13.65 16.69c1.8 2.28 1.8 2.28 4.42 2.28H45A1.53 1.53 0 0 0 46.74 59v-4.4a1.53 1.53 0 0 0-1.7-1.7h-4.86L26.6 36.08 39 23.5h6a1.49 1.49 0 0 0 1.71-1.64v-4.49a1.54 1.54 0 0 0-1.66-1.71zM98.39 52.85h-3.58V33.59c0-11.47-7.22-18.88-18.39-18.88a18.25 18.25 0 0 0-12.85 4.72v-2a1.54 1.54 0 0 0-1.7-1.71H52.1a1.53 1.53 0 0 0-1.71 1.7v4.4a1.54 1.54 0 0 0 1.7 1.71h3.59v29.32h-3.59a1.53 1.53 0 0 0-1.7 1.7V59a1.54 1.54 0 0 0 1.7 1.71h15.07a1.54 1.54 0 0 0 1.7-1.71v-4.4a1.53 1.53 0 0 0-1.7-1.7h-3.59V35c0-7.35 5.16-12.68 12.27-12.68 6.93 0 11.06 4.5 11.06 12v18.53h-3.58a1.53 1.53 0 0 0-1.71 1.7V59a1.54 1.54 0 0 0 1.71 1.71h15.07A1.54 1.54 0 0 0 100.1 59v-4.4a1.53 1.53 0 0 0-1.71-1.75zM122.87 14.78c-12.91 0-23 10.33-23 23.51s10 23.26 22.85 23.26c13 0 23.1-10.32 23.1-23.5a22.86 22.86 0 0 0-22.95-23.27zm0 39.11c-8.3 0-14.8-7-14.8-15.84s6.3-15.6 14.64-15.6 14.88 7 14.88 15.84-6.33 15.6-14.72 15.6zM212.75 15.68h-15.48a1.54 1.54 0 0 0-1.71 1.71v4.4a1.53 1.53 0 0 0 1.71 1.7h3.48l-7.38 23.84L182.93 17a2 2 0 0 0-1.93-1.4h-3a2 2 0 0 0-1.9 1.36l-10.38 30.36-7.38-23.83h3.48a1.53 1.53 0 0 0 1.7-1.7v-4.4a1.54 1.54 0 0 0-1.7-1.71h-15.65a1.54 1.54 0 0 0-1.71 1.71v4.4a1.53 1.53 0 0 0 1.71 1.7h3.67l12.27 36a2 2 0 0 0 1.89 1.34h3.34a2 2 0 0 0 1.88-1.36L179.48 30l10.21 29.51a2 2 0 0 0 1.9 1.36h3.33a2 2 0 0 0 1.88-1.32l12.27-36h3.68a1.53 1.53 0 0 0 1.71-1.7v-4.4a1.54 1.54 0 0 0-1.71-1.77zM234.65 52.85h-3.58V17.39a1.54 1.54 0 0 0-1.71-1.71h-9.86a1.54 1.54 0 0 0-1.71 1.71v4.4a1.53 1.53 0 0 0 1.71 1.7h3.59v29.36h-6.52a1.53 1.53 0 0 0-1.7 1.7V59a1.54 1.54 0 0 0 1.7 1.71h18.08a1.54 1.54 0 0 0 1.71-1.71v-4.4a1.53 1.53 0 0 0-1.71-1.75zM269.67 37.79h-4.33a1.53 1.53 0 0 0-1.71 1.7v8.34a5.62 5.62 0 0 1-5.46 5.83c-4.29 0-6.12-1.79-6.12-6V23.5h10.47a1.54 1.54 0 0 0 1.71-1.71v-4.4a1.54 1.54 0 0 0-1.71-1.71h-10.47V6.33a1.54 1.54 0 0 0-1.71-1.71h-4.56a1.54 1.54 0 0 0-1.71 1.71v9.35h-4.77a1.54 1.54 0 0 0-1.71 1.71v4.4a1.54 1.54 0 0 0 1.71 1.71h4.77v24.6c0 8.07 5.27 13.29 13.44 13.29 8.43 0 13.87-5 13.87-12.86v-9a1.53 1.53 0 0 0-1.71-1.74z"/><circle class="e3b3e149-d1ca-4e52-b8fd-976f9ed6cd0f" cx="226.98" cy="5" r="5"/></svg>